# xmcd
#
# Track frame offsets:
#	150
#	21150
#	44039
#	67819
#	87693
#	108950
#	129974
#	151325
#	176606
#	198948
#	221079
#	242843
#	262574
#	286556
#
# Disc length: 4093 seconds
#
# Revision: 1
# Processed by: cddbd v1.5.2PL0 Copyright (c) Steve Scherf et al.
# Submitted via: EZCDAudioConverter 8.0.2.1
#
DISCID=ba0ffb0e
DTITLE=Toàn Nguyễn - Chọn Lọc 3. Trịnh Công Sơn
DYEAR=2099
DGENRE=Traditional Country
TTITLE0=Mùa thu trong mưa
TTITLE1=Tưởng niệm
TTITLE2=Đường xưa
TTITLE3=Mối tình đầu
TTITLE4=Bây giờ tháng mấy
TTITLE5=Cô đơn
TTITLE6=Chiếc lá cuối cùng
TTITLE7=Trên ngọn tình sầu
TTITLE8=Phố vắng em rồi
TTITLE9=Ai về sông Tương
TTITLE10=Bài không tên cuối cùng
TTITLE11=Về đây nghe em
TTITLE12=Hạnh phúc lang thang
TTITLE13=Em về nào có hay
EXTD=
EXTT0=
EXTT1=
EXTT2=
EXTT3=
EXTT4=
EXTT5=
EXTT6=
EXTT7=
EXTT8=
EXTT9=
EXTT10=
EXTT11=
EXTT12=
EXTT13=
PLAYORDER=
